<?xml version="1.0" encoding="utf-8"?>
<!-- Generator: Adobe Illustrator 27.7.0, SVG Export Plug-In . SVG Version: 6.00 Build 0)  -->
<svg version="1.1" id="Capa_1" xmlns="http://www.w3.org/2000/svg" xmlns:xlink="http://www.w3.org/1999/xlink" x="0px" y="0px"
	 viewBox="0 0 197 197.82" style="enable-background:new 0 0 197 197.82;" xml:space="preserve">
<style type="text/css">
	.st0{fill:#804A97;}
	.st1{fill:none;}
</style>
<path class="st0" d="M182.1,146.88c-9.74-27.91-44.45-48.56-85.77-48.56c-41.88,0-76.96,21.2-86.15,49.68
	c16.95,29.76,48.95,49.82,85.65,49.82C132.98,197.82,165.33,177.25,182.1,146.88z"/>
<circle class="st0" cx="95.08" cy="50.57" r="42.75"/>
<path class="st0" d="M160.5,108.5L160.5,108.5c-3.31,0-6-2.69-6-6v-45c0-3.31,2.69-6,6-6l0,0c3.31,0,6,2.69,6,6v45
	C166.5,105.81,163.81,108.5,160.5,108.5z"/>
<path class="st0" d="M189.5,79.5L189.5,79.5c0,3.31-2.69,6-6,6h-45c-3.31,0-6-2.69-6-6v0c0-3.31,2.69-6,6-6h45
	C186.81,73.5,189.5,76.19,189.5,79.5z"/>
<circle class="st1" cx="98.5" cy="98.5" r="98.5"/>
</svg>
