<svg xmlns="http://www.w3.org/2000/svg" width="25.887" height="25.375" viewBox="0 0 25.887 25.375">
  <path id="Trazado_2932" data-name="Trazado 2932" d="M263.034,264.729A13.159,13.159,0,0,1,243.06,256a13.106,13.106,0,0,1,4-7.26L243.313,245l1.695-1.7,23.686,23.686-1.7,1.689-3.965-3.952Zm-14.287-14.293A10.743,10.743,0,0,0,245.5,256a10.761,10.761,0,0,0,15.791,6.979l-2.427-2.426a5.384,5.384,0,0,1-7.424-7.424Zm8.347,8.346-3.876-3.876a2.988,2.988,0,0,0,1.688,3.876,2.955,2.955,0,0,0,2.188,0Zm9.44,2.714-1.709-1.709a10.737,10.737,0,0,0,1.675-3.78,10.783,10.783,0,0,0-12.9-8.108c-.178.041-.356.082-.527.137l-1.886-1.887a13.172,13.172,0,0,1,17.759,9.858A13.17,13.17,0,0,1,266.534,261.5Zm-10.862-10.869a5.384,5.384,0,0,1,5.708,5.038,5.236,5.236,0,0,1,0,.663l-5.708-5.7Z" transform="translate(-243.06 -243.306)" fill="#707070"/>
</svg>
